<svg width="220" height="86" viewBox="0 0 220 86" fill="none" xmlns="http://www.w3.org/2000/svg">
<path d="M100.512 71.1308C101.747 71.1308 102.365 71.7615 102.365 73.0227C102.365 74.2589 101.734 74.877 100.474 74.877H94.1479C90.3673 74.877 88.477 72.9558 88.477 69.1137V64.2777C88.477 60.4858 90.3673 58.5899 94.1479 58.5899H100.373C101.692 58.5814 102.352 59.2037 102.352 60.4566C102.344 61.676 101.701 62.2983 100.424 62.3233H94.0975C92.871 62.315 92.2576 62.9706 92.2576 64.2903V69.2015C92.2576 70.4795 92.9003 71.1183 94.1858 71.1183L100.512 71.1308ZM106.434 64.2277C106.434 60.4523 108.328 58.5648 112.117 58.5648H114.625C118.422 58.5648 120.321 60.4483 120.321 64.2151V69.0888C120.321 72.9308 118.431 74.8519 114.65 74.8519H112.067C108.311 74.8519 106.434 72.9726 106.434 69.2141V64.2277ZM114.625 62.3484H112.079C110.836 62.3484 110.214 62.9706 110.214 64.2151V69.1638C110.214 70.4501 110.836 71.0933 112.079 71.0933H114.625C115.902 71.0933 116.54 70.4501 116.54 69.1638V64.165C116.54 62.9539 115.902 62.3484 114.625 62.3484ZM126.318 58.5648L140.142 58.5899C143.923 58.5899 145.814 60.5109 145.814 64.353V72.9975C145.814 74.2506 145.183 74.877 143.923 74.877C142.663 74.877 142.033 74.2421 142.033 72.9726V64.2777C142.033 62.9915 141.39 62.3484 140.105 62.3484H136.967L136.992 72.9975C136.992 74.2506 136.362 74.877 135.102 74.877C133.842 74.877 133.211 74.2421 133.211 72.9726V64.2777C133.211 62.9915 132.573 62.3484 131.296 62.3484H128.171V72.9475C128.171 74.2171 127.532 74.8519 126.255 74.8519C125.012 74.8519 124.39 74.2171 124.39 72.9475V60.4566C124.39 59.2204 125.033 58.5899 126.318 58.5648ZM149.882 60.4817C149.882 59.2037 150.504 58.5648 151.747 58.5648H158.074C161.871 58.5648 163.77 60.4483 163.77 64.2151V69.0888C163.77 72.9308 161.88 74.8519 158.099 74.8519H153.663V77.984C153.663 79.2619 153.033 79.9009 151.773 79.9009C150.513 79.9009 149.882 79.2786 149.882 78.034V60.4817ZM158.074 62.3484H153.663V71.0933H158.074C159.351 71.0933 159.989 70.4501 159.989 69.1638V64.165C159.989 62.9539 159.351 62.3484 158.074 62.3484ZM181.676 72.9726C181.676 74.2421 181.059 74.877 179.823 74.877C178.538 74.877 177.895 74.2421 177.895 72.9726V69.8529L171.632 69.8405L171.62 72.9726C171.62 74.2421 170.989 74.877 169.729 74.877C168.469 74.877 167.839 74.2506 167.839 72.9975V64.353C167.839 60.5109 169.729 58.5899 173.51 58.5899L179.786 58.6023C181.046 58.6023 181.676 59.2204 181.676 60.4566V72.9726ZM171.62 66.0694H177.895V62.3484H173.548C172.262 62.3484 171.62 62.9915 171.62 64.2777V66.0694ZM187.66 74.8519C186.416 74.8519 185.795 74.2171 185.795 72.9475V60.4566C185.795 59.2204 186.425 58.6023 187.685 58.6023L194.011 58.5899C197.792 58.5899 199.682 60.5109 199.682 64.353V72.9975C199.682 74.2506 199.052 74.877 197.792 74.877C196.532 74.877 195.901 74.2421 195.901 72.9726V64.2777C195.901 62.9915 195.264 62.3484 193.986 62.3484H189.576V72.9475C189.576 74.2171 188.938 74.8519 187.66 74.8519ZM215.787 58.5522C217.022 58.5522 217.64 59.1869 217.64 60.4566V74.3381C217.64 78.0383 215.75 79.8883 211.969 79.8883H208.037C206.827 79.8883 206.218 79.2619 206.209 78.0091C206.2 76.7646 206.802 76.1422 208.012 76.1422H212.51C213.409 76.1507 213.859 75.7163 213.859 74.8393H209.424C205.641 74.8393 203.751 72.9183 203.751 69.0762V60.4315C203.751 59.1786 204.381 58.5522 205.641 58.5522C206.901 58.5522 207.532 59.1869 207.532 60.4566V69.1514C207.532 70.4377 208.176 71.0808 209.461 71.0808H213.859V60.4566C213.859 59.1869 214.502 58.5522 215.787 58.5522Z" fill="#666666"/>
<path fill-rule="evenodd" clip-rule="evenodd" d="M51.6817 56.6501C49.7261 57.0941 47.9052 57.3673 45.7563 57.5485C42.911 57.7885 39.7673 57.9283 34.7027 57.013C33.94 56.8752 33.0559 56.6326 32.1216 56.3728C30.7391 55.9883 29.2219 55.4008 27.7264 54.7206C24.4225 53.2182 21.0928 50.7927 18.4821 48.2793C14.8273 44.7603 12.2508 41.3049 9.50426 36.037C9.49894 36.0267 9.49363 36.0167 9.48831 36.0064C8.91512 40.2466 8.87763 43.227 9.15354 45.6506C9.15461 45.6525 9.15568 45.6547 9.15673 45.6566C9.96872 47.1466 10.7111 48.7179 11.4609 50.3049C12.6473 52.8159 13.8519 55.3654 15.3794 57.6931C19.2828 63.6405 24.6648 68.637 31.3653 71.4724C41.3041 75.6784 54.1293 72.8666 54.1722 72.6997C55.6433 66.999 54.7371 62.8748 51.6817 56.6501Z" fill="url(#paint0_radial_694_7)"/>
<path fill-rule="evenodd" clip-rule="evenodd" d="M44.8544 79.6296C54.8622 79.6296 64.4602 75.6772 71.5369 68.642C78.6133 61.6066 82.589 52.0647 82.589 42.1152C82.589 34.6955 80.3758 27.4425 76.2297 21.2733C72.0833 15.1042 66.1899 10.2958 59.2948 7.45645C52.3997 4.61709 44.8126 3.87416 37.4927 5.32167C30.1729 6.76918 23.4492 10.3421 18.1719 15.5885C12.8947 20.835 9.30083 27.5195 7.84483 34.7966C6.38882 42.0736 7.13611 49.6165 9.99214 56.4714C12.8482 63.3263 17.6847 69.1852 23.8901 73.3072C30.0955 77.4294 37.3911 79.6296 44.8544 79.6296ZM80.7293 42.1152C80.7293 51.5743 76.9496 60.6459 70.2218 67.3346C63.4939 74.0232 54.369 77.7808 44.8544 77.7808C37.759 77.7808 30.823 75.689 24.9234 71.77C19.0238 67.851 14.4256 62.2808 11.7103 55.7638C10.3586 52.5196 9.50369 49.1131 9.15673 45.6566C9.96872 47.1466 10.7111 48.7179 11.4609 50.3049C12.6473 52.8159 13.8519 55.3654 15.3794 57.6931C19.2828 63.6405 24.6648 68.637 31.3653 71.4724C41.3041 75.6784 54.1293 72.8666 54.1722 72.6997C55.6433 66.999 54.7371 62.8749 51.6817 56.6501C49.7261 57.0941 47.9052 57.3673 45.7563 57.5485C42.911 57.7885 39.7673 57.9283 34.7027 57.0131C33.94 56.8752 33.0559 56.6326 32.1216 56.3728C30.7391 55.9883 29.2219 55.4008 27.7264 54.7206C24.4225 53.2183 21.0928 50.7927 18.4821 48.2793C14.8273 44.7603 12.2508 41.305 9.50426 36.037C9.55535 35.7433 9.61019 35.4501 9.66878 35.1572C11.053 28.2388 14.4698 21.8838 19.4869 16.8959C24.5042 11.908 30.8965 8.51114 37.8555 7.13496C44.8145 5.7588 52.0279 6.4651 58.5832 9.16454C60.7996 10.0772 62.9704 11.1575 64.8781 12.5222C63.7504 11.7981 62.469 10.7866 59.5476 9.57821C48.4977 8.20003 35.1657 8.54658 25.5487 16.3844C17.2407 23.1552 13.7094 34.7817 13.8289 34.8826C16.0162 36.7273 17.8747 37.9361 19.8322 38.7519C19.2972 38.5464 18.8632 38.3362 18.0206 37.9221C17.5703 40.4809 17.663 45.6741 17.9989 47.7339C20.3157 50.1288 23.9088 53.0025 28.9204 55.1886C31.3573 56.2516 34.2873 56.98 37.3267 57.3993C41.878 57.9045 46.2287 57.7258 51.7091 56.6091C53.2566 59.7544 54.5926 62.7404 54.9443 67.1871C55.0906 67.0839 55.3928 66.9514 55.8232 66.7627C57.1947 66.1614 59.868 64.9896 62.9497 62.3773C62.0916 65.323 60.9329 68.1962 59.5858 70.5975C59.5214 70.7124 59.4575 70.8265 59.394 70.9396C58.3269 72.8436 57.3812 74.6013 56.4587 75.8635C57.4604 75.5064 58.0448 75.2826 58.7126 75.0122C60.7163 74.1053 62.0519 73.5709 65.3078 71.4165C72.5019 62.7163 78.7782 52.457 77.7615 40.8504C76.8416 30.3461 68.22 20.2233 67.8442 20.268C66.6306 20.4131 64.8981 21.0282 63.001 22.1126C62.9618 22.0801 62.9218 22.0468 62.8809 22.0128C61.2317 20.6444 58.106 18.0506 52.6363 16.3452C51.4188 16.7501 50.4087 17.093 49.5926 17.3862C50.6584 16.966 51.8089 16.5594 53.051 16.1627C57.2938 14.9971 63.439 14.1722 67.4323 14.3988C70.2201 16.6433 72.6685 19.3029 74.6833 22.3005C78.6253 28.1657 80.7293 35.0613 80.7293 42.1152Z" fill="url(#paint1_radial_694_7)"/>
<path d="M29.5521 40.5189C25.389 40.2508 22.5173 39.8709 19.8322 38.7518M19.8322 38.7518C20.374 38.9601 21.0198 39.1634 22.2987 39.5688M19.8322 38.7518C19.2972 38.5464 18.8632 38.3362 18.0206 37.9221C17.5703 40.4809 17.663 45.6741 17.9989 47.7339C20.3157 50.1288 23.9088 53.0025 28.9204 55.1886C31.3573 56.2516 34.2873 56.98 37.3267 57.3993C41.878 57.9045 46.2287 57.7258 51.7091 56.6091C53.2566 59.7544 54.5926 62.7404 54.9443 67.1871C55.0906 67.0839 55.3928 66.9514 55.8232 66.7627C57.1947 66.1614 59.868 64.9896 62.9497 62.3773M19.8322 38.7518C17.8747 37.9361 16.0162 36.7273 13.8289 34.8826C13.7094 34.7817 17.2407 23.1552 25.5487 16.3844C35.1657 8.54658 48.4977 8.20003 59.5476 9.57821C62.469 10.7866 63.7504 11.7981 64.8781 12.5222M43.7334 20.3866C45.3241 19.296 47.2541 18.3084 49.5926 17.3862M49.5926 17.3862C48.9961 17.6006 48.5032 17.7884 48.1088 17.9545M49.5926 17.3862C50.4087 17.093 51.4188 16.7501 52.6363 16.3452C58.106 18.0506 61.2317 20.6444 62.8809 22.0128C62.9218 22.0468 62.9618 22.0801 63.001 22.1126M49.5926 17.3862C50.6584 16.966 51.8089 16.5594 53.051 16.1627C57.2938 14.9971 63.439 14.1722 67.4323 14.3988M54.5783 30.1111C56.9649 26.4001 60.1666 23.7326 63.001 22.1126M63.001 22.1126C64.8981 21.0282 66.6306 20.4131 67.8442 20.268C68.22 20.2233 76.8416 30.3461 77.7615 40.8504C78.7782 52.457 72.5019 62.7163 65.3078 71.4165C62.0519 73.5709 60.7163 74.1053 58.7126 75.0122C58.0448 75.2826 57.4604 75.5064 56.4587 75.8635C57.3812 74.6013 58.3269 72.8436 59.394 70.9396C59.4575 70.8265 59.5214 70.7124 59.5858 70.5975C60.9329 68.1962 62.0916 65.323 62.9497 62.3773M62.9497 62.3773C62.8999 62.2157 65.3733 57.0785 64.4148 49.6694C64.0748 47.0408 62.9629 43.6457 61.6869 40.4389C59.8774 36.0154 57.3864 32.7407 54.6503 29.9967C56.5648 27.4395 58.0652 25.571 60.2042 23.9321M62.9497 62.3773C62.8129 62.4976 63.0852 62.2624 62.9497 62.3773ZM22.0952 39.4372C24.3426 40.0997 27.3014 40.4496 29.5772 40.4469C30.168 34.7321 32.8327 30.1112 36.7785 26.0341C39.5226 23.5826 42.2316 21.1765 44.9624 19.5733C46.0888 18.912 47.1667 18.2959 48.2585 17.8777M9.15673 45.6566C9.50369 49.1131 10.3586 52.5196 11.7103 55.7638C14.4256 62.2808 19.0238 67.851 24.9234 71.77C30.823 75.689 37.759 77.7808 44.8544 77.7808C54.369 77.7808 63.4939 74.0232 70.2218 67.3346C76.9496 60.6459 80.7293 51.5743 80.7293 42.1152C80.7293 35.0613 78.6253 28.1657 74.6833 22.3005C72.6685 19.3029 70.2201 16.6433 67.4323 14.3988M9.15673 45.6566C9.96872 47.1466 10.7111 48.7179 11.4609 50.3049C12.6473 52.8159 13.8519 55.3654 15.3794 57.6931C19.2828 63.6405 24.6648 68.637 31.3653 71.4724C41.3041 75.6784 54.1293 72.8666 54.1722 72.6997C55.6433 66.999 54.7371 62.8749 51.6817 56.6501C49.7261 57.0941 47.9052 57.3673 45.7563 57.5485C42.911 57.7885 39.7673 57.9283 34.7027 57.0131C33.94 56.8752 33.0559 56.6326 32.1216 56.3728C30.7391 55.9883 29.2219 55.4008 27.7264 54.7206C24.4225 53.2183 21.0928 50.7927 18.4821 48.2793C14.8273 44.7604 12.2508 41.305 9.50426 36.037M9.15673 45.6566C8.83625 42.4635 8.94917 39.2277 9.50426 36.037M9.15673 45.6566C9.15568 45.6547 9.15461 45.6526 9.15354 45.6506C8.87764 43.227 8.91512 40.2466 9.48831 36.0064C9.49364 36.0167 9.49894 36.0267 9.50426 36.037M67.4323 14.3988C66.6096 13.7364 65.7574 13.1103 64.8781 12.5222M9.50426 36.037C9.55535 35.7433 9.61019 35.4501 9.66878 35.1572C11.053 28.2388 14.4698 21.8838 19.4869 16.8959C24.5042 11.908 30.8965 8.51114 37.8555 7.13496C44.8145 5.7588 52.0279 6.4651 58.5832 9.16454C60.7996 10.0772 62.9704 11.1575 64.8781 12.5222M82.589 42.1152C82.589 52.0647 78.6133 61.6066 71.5369 68.642C64.4602 75.6772 54.8622 79.6296 44.8544 79.6296C37.3911 79.6296 30.0955 77.4294 23.8901 73.3072C17.6847 69.1852 12.8482 63.3263 9.99214 56.4714C7.13611 49.6165 6.38882 42.0736 7.84483 34.7966C9.30083 27.5195 12.8947 20.835 18.1719 15.5885C23.4492 10.3421 30.1729 6.76918 37.4927 5.32167C44.8126 3.87416 52.3997 4.61709 59.2948 7.45645C66.1899 10.2958 72.0833 15.1042 76.2297 21.2733C80.3758 27.4425 82.589 34.6955 82.589 42.1152Z" stroke="#3A3838" stroke-width="0.666667"/>
<path d="M92.9009 56.6853C89.9337 56.6853 88.4503 55.1706 88.4503 52.1411V10.2274C88.4503 7.2578 89.9538 5.77297 92.9609 5.77297C95.9681 5.77297 97.4716 7.29765 97.4716 10.347V17.8209H108.057C117.078 17.8209 121.589 22.4049 121.589 31.573V52.2009C121.589 55.1906 120.085 56.6853 117.078 56.6853C114.071 56.6853 112.567 55.1706 112.567 52.1411V31.3935C112.567 28.3243 111.044 26.7897 107.997 26.7897H97.4716V52.1411C97.4716 55.1706 95.9479 56.6853 92.9009 56.6853ZM132.204 17.7611L165.192 17.8209C174.213 17.8209 178.723 22.4049 178.723 31.573V52.2009C178.723 55.1906 177.22 56.6853 174.213 56.6853C171.206 56.6853 169.703 55.1706 169.703 52.1411V31.3935C169.703 28.3243 168.169 26.7897 165.102 26.7897H157.614L157.674 52.2009C157.674 55.1906 156.171 56.6853 153.163 56.6853C150.156 56.6853 148.653 55.1706 148.653 52.1411V31.3935C148.653 28.3243 147.129 26.7897 144.082 26.7897H136.624V52.0813C136.624 55.1108 135.101 56.6255 132.053 56.6255C129.086 56.6255 127.603 55.1108 127.603 52.0813V22.2754C127.603 19.3258 129.137 17.8209 132.204 17.7611ZM213.457 47.7465C216.403 47.7465 217.877 49.2513 217.877 52.2607C217.877 55.2104 216.372 56.6853 213.366 56.6853H198.271C189.248 56.6853 184.738 52.1013 184.738 42.9333V31.3935C184.738 22.3451 189.248 17.8209 198.271 17.8209H213.126C216.273 17.8009 217.846 19.2858 217.846 22.2754C217.827 25.1853 216.292 26.6701 213.245 26.7299H198.149C195.223 26.7099 193.76 28.2745 193.76 31.4234V43.1426C193.76 46.1919 195.293 47.7165 198.36 47.7165L213.457 47.7465Z" fill="#666666"/>
<defs>
<radialGradient id="paint0_radial_694_7" cx="0" cy="0" r="1" gradientUnits="userSpaceOnUse" gradientTransform="translate(41.4405 37.1462) rotate(58.1251) scale(27.3514 27.0971)">
<stop stop-color="#BBBFC2"/>
<stop offset="1" stop-color="#666666"/>
</radialGradient>
<radialGradient id="paint1_radial_694_7" cx="0" cy="0" r="1" gradientUnits="userSpaceOnUse" gradientTransform="translate(41.4405 37.1462) rotate(58.1251) scale(27.3514 27.0971)">
<stop stop-color="#BBBFC2"/>
<stop offset="1" stop-color="#666666"/>
</radialGradient>
</defs>
</svg>
