<svg width="50" height="50" viewBox="0 0 50 50" fill="none" xmlns="http://www.w3.org/2000/svg">
<path d="M34.272 29.9908C34.823 29.4389 35.7179 29.4375 36.2707 29.9876L43.5844 37.2645C44.1373 37.8145 44.1387 38.7078 43.5876 39.2596L40.9492 41.9017L31.6335 32.6329L34.272 29.9908Z" fill="#666666"/>
<path d="M10.6364 6.41481C11.1875 5.86299 12.0824 5.86155 12.6352 6.4116L20.1401 13.8787C20.6929 14.4288 20.6943 15.322 20.1433 15.8738L17.5048 18.516L7.99794 9.05693L10.6364 6.41481Z" fill="#666666"/>
<path d="M28.9862 33.772C29.7311 34.0453 30.1709 33.9836 31.0002 33.4193L40.2223 42.6245C38.8137 43.6861 37.6114 43.9424 34.6749 44C32.1371 43.8007 30.5482 43.3306 27.4315 41.8839C25.8911 41.0598 25.0003 40.5241 23.3681 39.4503C22.0807 38.4982 21.2979 37.8947 19.7994 36.6993C16.1473 33.4909 14.3681 31.619 11.6726 28.1289C10.5397 26.6845 9.84174 25.6358 8.49261 23.3676C7.54861 21.5575 7.11351 20.4314 6.4786 18.2536C5.96456 16.097 5.9179 14.9484 6.08993 12.9632C6.31411 11.6118 6.6055 10.9256 7.32661 9.78901L16.7607 19.2411C15.8067 20.1934 16.1186 21.6394 17.3967 23.2265C18.7884 24.9547 19.4802 25.7762 20.6121 27.0709C22.8751 29.2247 24.0062 30.2404 25.7708 31.6911C27.6928 33.1643 28.4606 33.6829 28.9862 33.772Z" fill="#666666"/>
</svg>
