<svg width="50" height="50" viewBox="0 0 50 50" fill="none" xmlns="http://www.w3.org/2000/svg">
<path fill-rule="evenodd" clip-rule="evenodd" d="M42 16.6667C42 19.4889 41.2845 22.1472 40.0217 24.4769L40.046 24.4778L29.4499 46.4087C29.044 48.4552 27.206 50 25 50C22.7701 50 20.9162 48.4215 20.5374 46.342L20.1171 45.5148L20.0864 45.5108L9.35406 23.2978L9.39955 23.2996C8.49918 21.2669 8 19.024 8 16.6667C8 7.46192 15.6112 0 25 0C34.3888 0 42 7.46192 42 16.6667ZM25 25.5556C30.0074 25.5556 34.0667 21.5759 34.0667 16.6667C34.0667 11.7575 30.0074 7.77778 25 7.77778C19.9926 7.77778 15.9333 11.7575 15.9333 16.6667C15.9333 21.5759 19.9926 25.5556 25 25.5556Z" fill="#666666"/>
</svg>
