<svg width="70" height="70" viewBox="0 0 70 70" fill="none" xmlns="http://www.w3.org/2000/svg">
<path fill-rule="evenodd" clip-rule="evenodd" d="M8 0.0012207C3.58172 0.0012207 0 3.58295 0 8.00123V62.0001C0 66.4184 3.58172 70.0001 8 70.0001H62.0003C66.4186 70.0001 70.0003 66.4184 70.0003 62.0001V8.00122C70.0003 3.58294 66.4186 0.0012207 62.0003 0.0012207H8ZM39.8613 34.7303V27.1056L39.8637 27.1031C39.8637 25.2809 41.3422 23.8021 43.1639 23.8021H49.2934V14.9192H39.9128C39.9042 14.9192 39.8962 14.9204 39.8883 14.9216C39.8803 14.9229 39.8723 14.9241 39.8637 14.9241V14.9192C34.075 14.9192 29.3847 19.6132 29.3847 25.4011V34.7303H20.6882V45.0013H29.3847V68.5549C31.2089 68.8492 33.082 69.0012 34.9895 69.0012C36.6421 69.0012 38.2701 68.886 39.8613 68.6652V45.0013H47.7978L49.2909 34.7303H39.8613Z" fill="#666666"/>
</svg>
