<svg width="50" height="50" viewBox="0 0 50 50" fill="none" xmlns="http://www.w3.org/2000/svg">
<path fill-rule="evenodd" clip-rule="evenodd" d="M14.5333 0C12.0296 0 10 2.02966 10 4.53333V45.4667C10 47.9703 12.0296 50 14.5333 50H35.4667C37.9704 50 40 47.9703 40 45.4667V4.53333C40 2.02966 37.9704 0 35.4667 0H14.5333ZM15.0667 9.86667C14.3303 9.86667 13.7333 10.4636 13.7333 11.2V38.6667C13.7333 39.4031 14.3303 40 15.0667 40H34.9333C35.6697 40 36.2667 39.4031 36.2667 38.6667V11.2C36.2667 10.4636 35.6697 9.86667 34.9333 9.86667H15.0667ZM28.2667 44.9333C28.2667 46.7007 26.834 48.1333 25.0667 48.1333C23.2994 48.1333 21.8667 46.7007 21.8667 44.9333C21.8667 43.166 23.2994 41.7333 25.0667 41.7333C26.834 41.7333 28.2667 43.166 28.2667 44.9333ZM21.8667 4.93333C21.4985 4.93333 21.2 5.2318 21.2 5.6C21.2 5.9682 21.4985 6.26667 21.8667 6.26667H28.1333C28.5015 6.26667 28.8 5.9682 28.8 5.6C28.8 5.2318 28.5015 4.93333 28.1333 4.93333H21.8667Z" fill="#666666"/>
</svg>
