<svg width="70" height="70" viewBox="0 0 70 70" fill="none" xmlns="http://www.w3.org/2000/svg">
<path fill-rule="evenodd" clip-rule="evenodd" d="M8 0C3.58172 0 0 3.58172 0 8V62C0 66.4183 3.58172 70 8 70H62C66.4183 70 70 66.4183 70 62V8C70 3.58172 66.4183 0 62 0H8ZM16.6892 23.2675C15.7674 22.4115 15.3089 21.3521 15.3089 20.0915C15.3089 18.8309 15.7698 17.7248 16.6892 16.8664C17.6111 16.0105 18.7978 15.5813 20.2517 15.5813C21.7056 15.5813 22.8457 16.0105 23.7651 16.8664C24.687 17.7223 25.1455 18.799 25.1455 20.0915C25.1455 21.384 24.6846 22.4115 23.7651 23.2675C22.8433 24.1234 21.6737 24.5526 20.2517 24.5526C18.8297 24.5526 17.6111 24.1234 16.6892 23.2675ZM24.3707 28.1774V54.4193H16.0812V28.1774H24.3707ZM51.9658 30.7683C53.7728 32.7304 54.6751 35.4232 54.6751 38.8519V53.9544H46.8024V39.9162C46.8024 38.1872 46.3537 36.8432 45.4588 35.8867C44.5639 34.9303 43.3576 34.4496 41.8473 34.4496C40.337 34.4496 39.1307 34.9278 38.2358 35.8867C37.3409 36.8432 36.8922 38.1872 36.8922 39.9162V53.9544H28.973V28.1025H36.8922V31.5311C37.6939 30.3882 38.7752 29.4857 40.1335 28.8211C41.4918 28.1564 43.0193 27.8253 44.7184 27.8253C47.7439 27.8253 50.1613 28.8063 51.9658 30.7659V30.7683Z" fill="#666666"/>
</svg>
