<svg width="70" height="70" viewBox="0 0 70 70" fill="none" xmlns="http://www.w3.org/2000/svg">
<path fill-rule="evenodd" clip-rule="evenodd" d="M8.00024 0C3.58197 0 0.000244141 3.58172 0.000244141 8V62C0.000244141 66.4183 3.58197 70 8.00024 70H62.0002C66.4185 70 70.0002 66.4183 70.0002 62V8C70.0002 3.58172 66.4185 0 62.0002 0H8.00024ZM45.8193 14.241H24.165C18.1827 14.241 13.3159 19.1092 13.3159 25.0933V44.9097C13.3159 50.8938 18.1827 55.7621 24.165 55.7621H45.8193C51.8017 55.7621 56.6685 50.8938 56.6685 44.9097V25.0933C56.6685 19.1092 51.8017 14.241 45.8193 14.241ZM17.1431 25.0933C17.1431 21.2208 20.2937 18.0693 24.165 18.0693H45.8193C49.6907 18.0693 52.8412 21.2208 52.8412 25.0933V44.9097C52.8412 48.7822 49.6907 51.9337 45.8193 51.9337H24.165C20.2937 51.9337 17.1431 48.7822 17.1431 44.9097V25.0933ZM34.9922 45.0936C40.5553 45.0936 45.0838 40.5663 45.0838 34.999C45.0838 29.4318 40.5578 24.9045 34.9922 24.9045C29.4266 24.9045 24.9006 29.4318 24.9006 34.999C24.9006 40.5663 29.4266 45.0936 34.9922 45.0936ZM34.9922 28.7353C38.4468 28.7353 41.2565 31.5459 41.2565 35.0015C41.2565 38.4571 38.4468 41.2677 34.9922 41.2677C31.5376 41.2677 28.7279 38.4571 28.7279 35.0015C28.7279 31.5459 31.5376 28.7353 34.9922 28.7353ZM48.7372 23.8151C48.7372 25.316 47.5162 26.5349 46.0181 26.5349C44.5176 26.5349 43.2991 25.316 43.2991 23.8151C43.2991 22.3141 44.5176 21.0952 46.0181 21.0952C47.5186 21.0952 48.7372 22.3141 48.7372 23.8151Z" fill="#666666"/>
</svg>
