<svg width="25" height="26" viewBox="0 0 25 26" fill="none" xmlns="http://www.w3.org/2000/svg">
<path d="M17.2321 9.91964C17.2321 12.5331 15.1135 14.6518 12.5 14.6518C9.88651 14.6518 7.76786 12.5331 7.76786 9.91964C7.76786 7.30615 9.88651 5.1875 12.5 5.1875C15.1135 5.1875 17.2321 7.30615 17.2321 9.91964Z" fill="#666666"/>
<path fill-rule="evenodd" clip-rule="evenodd" d="M12.5 25.5C19.4036 25.5 25 19.9036 25 13C25 6.09644 19.4036 0.5 12.5 0.5C5.59644 0.5 0 6.09644 0 13C0 19.9036 5.59644 25.5 12.5 25.5ZM21.1144 19.7403C22.5698 17.8828 23.4375 15.5427 23.4375 13C23.4375 6.95939 18.5406 2.0625 12.5 2.0625C6.45939 2.0625 1.5625 6.95939 1.5625 13C1.5625 15.5572 2.4401 17.9095 3.91055 19.772C4.81524 18.0529 5.77746 16.9274 7.11312 16.2411C8.44896 15.5548 10.1554 15.3093 12.545 15.3438C14.8658 15.3772 16.4052 15.4886 17.6686 16.0909C18.9258 16.6902 19.9068 17.774 21.1144 19.7403Z" fill="#666666"/>
</svg>
