<svg width="50" height="50" viewBox="0 0 50 50" fill="none" xmlns="http://www.w3.org/2000/svg">
<path fill-rule="evenodd" clip-rule="evenodd" d="M25 50C38.8071 50 50 38.8071 50 25C50 11.1929 38.8071 0 25 0C11.1929 0 0 11.1929 0 25C0 38.8071 11.1929 50 25 50ZM22.5027 24.6338C22.5029 24.6624 22.5036 24.691 22.5048 24.7194C22.5234 25.4318 22.8742 26.1249 23.5096 26.5543L32.9005 32.8995C33.9458 33.6058 35.3658 33.331 36.0721 32.2856C36.7784 31.2403 36.5035 29.8204 35.4582 29.1141L27.0637 23.4421L26.9881 11.4915C26.9801 10.2299 25.951 9.21372 24.6894 9.2217C23.4279 9.22969 22.4117 10.2588 22.4197 11.5204L22.5027 24.6338Z" fill="#666666"/>
</svg>
