<svg width="51" height="52" viewBox="0 0 51 52" fill="none" xmlns="http://www.w3.org/2000/svg">
<path d="M25.3771 26.1928C33.36 26.1928 39.8314 20.5532 39.8314 13.5964C39.8314 6.6396 33.36 1 25.3771 1C17.3942 1 10.9228 6.6396 10.9228 13.5964C10.9228 20.5532 17.3942 26.1928 25.3771 26.1928Z" fill="#666666"/>
<path d="M31.0039 30.6915H19.8486L23.6563 35.9614L20.264 48.3436L15.5934 32.4482C7.13717 34.3333 1.13913 39.0034 0.5 48.3436C0.802812 50.2056 1.40662 50.7837 3.40069 51L47.5993 50.9143C49.5934 50.698 50.1972 50.1199 50.5 48.2579C49.8609 38.9177 43.8628 34.2476 35.4066 32.3625L30.736 48.2579L27.3437 35.8758L31.0039 30.6915Z" fill="#666666"/>
<path d="M25.3771 26.1928C33.36 26.1928 39.8314 20.5532 39.8314 13.5964C39.8314 6.6396 33.36 1 25.3771 1C17.3942 1 10.9228 6.6396 10.9228 13.5964C10.9228 20.5532 17.3942 26.1928 25.3771 26.1928Z" stroke="#666666" stroke-linecap="round"/>
<path d="M31.0039 30.6915H19.8486L23.6563 35.9614L20.264 48.3436L15.5934 32.4482C7.13717 34.3333 1.13913 39.0034 0.5 48.3436C0.802812 50.2056 1.40662 50.7837 3.40069 51L47.5993 50.9143C49.5934 50.698 50.1972 50.1199 50.5 48.2579C49.8609 38.9177 43.8628 34.2476 35.4066 32.3625L30.736 48.2579L27.3437 35.8758L31.0039 30.6915Z" stroke="#666666" stroke-linecap="round"/>
</svg>
