<svg width="50" height="50" viewBox="0 0 50 50" fill="none" xmlns="http://www.w3.org/2000/svg">
<path d="M8.128 10C6.95274 10 6 10.9527 6 12.128V15.472L22.6345 27.48C24.5027 28.5801 25.5044 28.5662 27.2129 27.48L44 15.472V12.128C44 10.9527 43.0473 10 41.872 10H8.128Z" fill="#666666"/>
<path d="M44 18.816L27.5181 30.368C26.5678 30.7885 26.0023 30.9312 24.9237 30.976C23.6165 30.8703 22.8806 30.5796 21.5663 29.912L6 18.816V37.056C6 38.2313 6.95274 39.184 8.128 39.184H41.872C43.0473 39.184 44 38.2313 44 37.056V18.816Z" fill="#666666"/>
</svg>
