<svg width="70" height="70" viewBox="0 0 70 70" fill="none" xmlns="http://www.w3.org/2000/svg">
<path fill-rule="evenodd" clip-rule="evenodd" d="M8 0C3.58172 0 0 3.58172 0 8V62C0 66.4183 3.58172 70 8 70H62C66.4183 70 70 66.4183 70 62V8C70 3.58172 66.4183 0 62 0H8ZM13.5461 34.6677C13.4504 34.7118 13.3523 34.7584 13.2543 34.8075L13.2494 34.805C12.8449 35.011 12.4599 35.2636 12.2613 35.6634C11.945 36.3011 12.2466 37.1055 12.7713 37.5837C13.2959 38.062 13.9972 38.29 14.6763 38.501C15.9537 38.9007 17.236 39.2882 18.5208 39.6659C20.0531 40.1172 21.6468 40.5586 23.2306 40.333C25.0008 40.0828 26.5406 39.0332 28.0092 38.0129C30.2591 36.45 32.5083 34.8866 34.7576 33.3231C37.0086 31.7584 39.2596 30.1937 41.5112 28.6296C41.8691 28.3819 42.3203 28.1219 42.7126 28.3132C43.3721 28.6345 42.9945 29.64 42.514 30.1967C40.9558 32.0034 39.1522 33.579 37.3502 35.1533C35.2137 37.0198 33.0793 38.8844 31.3583 41.1301C30.9758 41.6279 30.6007 42.1871 30.5958 42.8149C30.586 43.8573 31.552 44.6077 32.42 45.1816C34.2468 46.3917 36.0742 47.6017 37.9016 48.8118C39.7261 50.0199 41.5506 51.228 43.3746 52.4362C44.2548 53.0174 45.1521 53.6085 46.1696 53.8905C47.1871 54.1701 48.359 54.0965 49.1828 53.4368C50.1562 52.6569 50.4112 51.3031 50.5975 50.0695C51.8032 42.1461 53.0069 34.2208 54.2105 26.297L54.6969 23.0943C54.8931 21.8042 55.023 20.2984 54.0962 19.3812C53.9026 19.1874 53.6696 19.0329 53.4171 18.9225C52.6865 18.6062 51.8455 18.665 51.083 18.8097C50.8883 18.8465 50.6966 18.8977 50.5052 18.9488C50.3012 19.0032 50.0976 19.0575 49.8914 19.0942C49.5469 19.1546 49.1998 19.3205 48.8659 19.4801C48.7389 19.5409 48.6138 19.6007 48.4915 19.6534C47.493 20.0804 46.4939 20.508 45.4948 20.9356C44.4969 21.3627 43.499 21.7898 42.5017 22.2163C41.5051 22.6425 40.5079 23.0693 39.5106 23.4961C38.5109 23.924 37.5111 24.3519 36.512 24.7791C35.5158 25.2052 34.5189 25.6318 33.522 26.0585C32.5219 26.4865 31.5218 26.9146 30.5223 27.342C29.5251 27.7685 28.5273 28.1955 27.5295 28.6226C26.5303 29.0502 25.5311 29.4779 24.5325 29.9049L21.5389 31.1876C21.2886 31.2943 21.0389 31.4011 20.7893 31.5079C20.54 31.6145 20.2908 31.7211 20.0409 31.8277C19.8952 31.8911 19.7488 31.9537 19.602 32.0165C19.4991 32.0605 19.3961 32.1045 19.2931 32.149C19.2281 32.1771 19.1632 32.2047 19.0982 32.2323C19.0332 32.2599 18.9682 32.2875 18.9032 32.3157C18.8749 32.327 18.8395 32.346 18.8015 32.3665C18.724 32.4081 18.6355 32.4555 18.5747 32.4555L18.4849 32.494C16.8328 33.2022 15.1788 33.9113 13.5461 34.6677Z" fill="#666666"/>
</svg>
