<svg width="27" height="26" viewBox="0 0 27 26" fill="none" xmlns="http://www.w3.org/2000/svg">
<path fill-rule="evenodd" clip-rule="evenodd" d="M15.5912 17.2728C14.0061 18.7564 11.8732 19.6651 9.52732 19.6651C4.63369 19.6651 0.666626 15.7107 0.666626 10.8326C0.666626 5.95447 4.63369 2 9.52732 2C14.4209 2 18.388 5.95447 18.388 10.8326C18.388 12.3622 17.9979 13.801 17.3115 15.0556L25.7791 21.4835C26.3968 21.9524 26.5162 22.8318 26.0458 23.4475C25.5754 24.0633 24.6932 24.1824 24.0755 23.7134L15.5912 17.2728ZM16.7532 10.8326C16.7532 14.8106 13.5181 18.0355 9.52732 18.0355C5.53658 18.0355 2.30144 14.8106 2.30144 10.8326C2.30144 6.85449 5.53658 3.62962 9.52732 3.62962C13.5181 3.62962 16.7532 6.85449 16.7532 10.8326Z" fill="#666666"/>
</svg>
