<svg width="51" height="50" viewBox="0 0 51 50" fill="none" xmlns="http://www.w3.org/2000/svg">
<path d="M9.24955 10.3523C18.0549 -0.617067 34.0191 0.768308 41.4282 10.3342C41.8798 10.9174 42.7375 11.0379 43.3438 10.6036C43.9501 10.1692 44.0755 9.34432 43.6238 8.76119C35.2103 -2.10163 17.0748 -3.70502 7.08241 8.74314C6.62039 9.3187 6.73099 10.1455 7.32943 10.5899C7.92787 11.0342 8.78754 10.9278 9.24955 10.3523Z" fill="#666666"/>
<path d="M25.4144 16.6902C28.3252 16.6902 30.6848 14.4208 30.6848 11.6214C30.6848 8.82189 28.3252 6.55248 25.4144 6.55248C22.5037 6.55248 20.1441 8.82189 20.1441 11.6214C20.1441 14.4208 22.5037 16.6902 25.4144 16.6902Z" fill="#666666"/>
<path d="M7.48152 21.2983C9.82523 21.2983 11.7252 19.471 11.7252 17.2169C11.7252 14.9628 9.82523 13.1354 7.48152 13.1354C5.13781 13.1354 3.23785 14.9628 3.23785 17.2169C3.23785 19.471 5.13781 21.2983 7.48152 21.2983Z" fill="#666666"/>
<path d="M21.5691 18.6933L24.8297 27.045L24.8301 27.0458C24.9496 27.3037 25.0541 27.4959 25.151 27.6242C25.249 27.754 25.333 27.8098 25.409 27.8124C25.4845 27.815 25.5687 27.7656 25.6687 27.6417C25.7674 27.5193 25.8751 27.3324 25.9989 27.0785L29.2598 18.6933L29.2882 18.6986C30.9438 19.0097 32.0604 19.3955 32.8459 20.0466C33.6322 20.6985 34.0822 21.6124 34.4142 22.9694L34.4151 22.9731V32.4333L31.0936 37.3229C31.094 37.3265 31.0943 37.3302 31.0946 37.3338L31.0948 37.3372L31.095 37.3406C31.0953 37.3473 31.0955 37.354 31.0955 37.3607V49.605C31.0955 49.8232 30.9116 50 30.6848 50H20.2125C19.9857 50 19.8018 49.8232 19.8018 49.605V37.3607L19.7732 37.3787L16.4138 32.4333V22.9731L16.4147 22.9694C16.7467 21.6124 17.1967 20.6985 17.983 20.0466C18.7685 19.3955 19.8851 19.0097 21.5407 18.6986L21.5691 18.6933Z" fill="#666666"/>
<path fill-rule="evenodd" clip-rule="evenodd" d="M24.5931 18.8297V18.7968H26.3385V18.8297L26.3483 18.7982C26.5935 18.8685 26.7412 18.9632 26.815 19.1148C26.8874 19.2634 26.8848 19.4597 26.8516 19.7224L26.8505 19.7306L26.0317 20.8463L26.3735 23.9372L25.3785 25.9538L24.4898 23.9367L24.7974 20.8467L24.0832 19.8981L24.0815 19.8933C23.9631 19.5485 23.9336 19.3123 24.017 19.1417C24.1012 18.9695 24.2945 18.8754 24.5839 18.798L24.5931 18.8297Z" fill="#666666"/>
<path d="M3.68275 44.9311C2.88923 44.9264 2.7245 44.7336 2.7245 44.0424L2.75873 35.6162L0.568446 32.4893L0.5 25.8076C0.784898 23.5814 2.44101 22.237 4.81212 22.0883L5.22279 22.1212L7.46441 23.7544L9.70602 22.1212L10.1167 22.0883C12.4878 22.237 14.1439 23.5814 14.4288 25.8076L14.3604 32.4893L12.1701 35.6162L12.2043 44.0424C12.2043 44.7336 12.0396 44.9264 11.2461 44.9311H3.68275Z" fill="#666666"/>
<path d="M38.7957 44.0424C38.7957 44.7336 38.9604 44.9264 39.7539 44.9311H47.3172C48.1108 44.9264 48.2755 44.7336 48.2755 44.0424L48.2413 35.6162L50.4316 32.4893L50.5 25.8076C50.2151 23.5814 48.559 22.237 46.1879 22.0883L45.7772 22.1212L43.5356 23.7544L41.294 22.1212L40.8833 22.0883C38.5122 22.237 36.8561 23.5814 36.5712 25.8076L36.6396 32.4893L38.8299 35.6162L38.7957 44.0424Z" fill="#666666"/>
<path d="M47.7964 17.2169C47.7964 19.471 45.8964 21.2983 43.5527 21.2983C41.209 21.2983 39.309 19.471 39.309 17.2169C39.309 14.9628 41.209 13.1354 43.5527 13.1354C45.8964 13.1354 47.7964 14.9628 47.7964 17.2169Z" fill="#666666"/>
</svg>
