<svg width="70" height="70" viewBox="0 0 70 70" fill="none" xmlns="http://www.w3.org/2000/svg">
<path fill-rule="evenodd" clip-rule="evenodd" d="M8.00024 0C3.58197 0 0.000244141 3.58172 0.000244141 8V62C0.000244141 66.4183 3.58197 70 8.00024 70H62.0002C66.4185 70 70.0002 66.4183 70.0002 62V8C70.0002 3.58172 66.4185 0 62.0002 0H8.00024ZM53.822 20.5474C55.9968 22.0876 56.5876 25.0184 56.8622 27.6695C57.3648 32.5525 57.3698 37.4845 56.8794 42.3699C56.6783 44.3834 56.3375 46.5098 55.0111 48.0377C53.6969 49.5533 51.7478 50.1395 49.703 50.3602C48.6634 50.473 47.5994 50.4926 46.5794 50.4902C38.6233 50.4853 30.6672 50.4779 22.7136 50.4706C20.2079 50.4681 17.4815 50.3896 15.5495 48.798C13.3698 47.0003 12.9163 43.8831 12.7373 41.0627C12.4946 37.1976 12.4725 33.3201 12.676 29.4525C12.7863 27.3286 12.9775 25.1533 13.8921 23.2329C14.5516 21.8522 15.6476 20.6112 17.0475 19.9588C18.4636 19.2985 19.937 19.3134 21.4501 19.3288C21.6792 19.3311 21.9091 19.3334 22.1399 19.3334C24.2411 19.331 26.3423 19.3292 28.4435 19.3273C30.5447 19.3255 32.6459 19.3236 34.747 19.3212C36.4952 19.3202 38.2437 19.3184 39.9923 19.3167C42.614 19.314 45.2358 19.3114 47.8568 19.3114C49.9236 19.3089 52.1376 19.3531 53.822 20.5474ZM30.1475 28.0521V41.7494L42.0044 34.8995L30.1475 28.0521Z" fill="#666666"/>
</svg>
