<svg width="70" height="70" viewBox="0 0 70 70" fill="none" xmlns="http://www.w3.org/2000/svg">
<path fill-rule="evenodd" clip-rule="evenodd" d="M8 0C3.58172 0 0 3.58172 0 8V62C0 66.4183 3.58172 70 8 70H62C66.4183 70 70 66.4183 70 62V8C70 3.58172 66.4183 0 62 0H8ZM57.6932 33.0358C57.2102 27.5765 54.7094 22.5121 50.6517 18.7769C46.5694 15.0196 41.2735 12.9497 35.7349 12.9497C23.5789 12.9497 13.6884 22.8431 13.6884 35.0027C13.6884 39.0837 14.8138 43.0592 16.9444 46.5222L12.1928 57.0435L27.4062 55.4224C30.0517 56.5064 32.8516 57.0557 35.7325 57.0557C36.4901 57.0557 37.2673 57.0165 38.047 56.9356C38.7335 56.862 39.4274 56.7541 40.109 56.6167C50.2888 54.5591 57.7202 45.5216 57.779 35.1204V35.0027C57.779 34.3405 57.7496 33.6784 57.6908 33.0383L57.6932 33.0358ZM27.9922 50.8043L19.5752 51.7019L22.0883 46.1322L21.5856 45.4578C21.5489 45.4087 21.5121 45.3597 21.4704 45.3033C19.2883 42.2891 18.136 38.7281 18.136 35.0052C18.136 25.2981 26.0307 17.401 35.7349 17.401C44.8262 17.401 52.5322 24.4962 53.2751 33.5533C53.3143 34.0389 53.3364 34.5269 53.3364 35.0076C53.3364 35.1358 53.3342 35.2618 53.3319 35.3956L53.3319 35.3964L53.3315 35.4246C53.1451 43.5448 47.4741 50.4413 39.5401 52.1973C38.9345 52.3322 38.3142 52.4352 37.6964 52.5014C37.054 52.575 36.3945 52.6118 35.7398 52.6118C33.4082 52.6118 31.1427 52.1605 29.0023 51.2678C28.7645 51.1722 28.5316 51.0691 28.3133 50.9637L27.9946 50.8092L27.9922 50.8043ZM41.8103 45.2385C32.8539 45.2385 25.5672 37.9471 25.5647 28.9881C25.5672 26.7171 27.4158 24.8703 29.6813 24.8703C29.9142 24.8703 30.1446 24.8899 30.3653 24.9292C30.8508 25.0101 31.3117 25.1744 31.7359 25.4221C31.7972 25.4589 31.8388 25.5178 31.8486 25.5865L32.795 31.5534C32.8073 31.6221 32.7852 31.6932 32.7387 31.7447C32.2164 32.3235 31.5495 32.7404 30.8066 32.9489L30.4487 33.0495L30.5835 33.3953C31.8045 36.5051 34.2906 38.9895 37.402 40.2157L37.7477 40.3531L37.8482 39.995C38.0566 39.2519 38.4734 38.5848 39.052 38.0624C39.0937 38.0232 39.1501 38.0035 39.2065 38.0035C39.2133 38.0035 39.2201 38.0035 39.2274 38.004C39.2332 38.0043 39.2392 38.0049 39.2457 38.006L45.2109 38.9527C45.282 38.9649 45.3409 39.0042 45.3777 39.0655C45.6228 39.4898 45.7871 39.9533 45.8705 40.4389C45.9097 40.6547 45.9269 40.8828 45.9269 41.1207C45.9269 43.3893 44.0807 45.236 41.8103 45.2385Z" fill="#666666"/>
</svg>
