<svg width="50" height="40" viewBox="0 0 50 40" fill="none" xmlns="http://www.w3.org/2000/svg">
<path fill-rule="evenodd" clip-rule="evenodd" d="M10.5216 0C9.87538 0 9.35156 0.528396 9.35156 1.18018V3.90314C8.27279 4.31208 7.28281 4.90404 6.41883 5.64152L4.15832 4.23087C3.60881 3.88796 2.88775 4.05931 2.54779 4.6136L0.194223 8.45105C-0.145737 9.00535 0.0241412 9.73269 0.573653 10.0756L3.02765 11.607C2.93202 12.1666 2.88218 12.742 2.88218 13.3291C2.88218 13.9293 2.93426 14.5173 3.03411 15.0886L0.600707 16.4563C0.0362537 16.7736 -0.166355 17.4923 0.148169 18.0617L2.32566 22.0035C2.64018 22.5729 3.35274 22.7772 3.91719 22.46L6.44517 21.0391C7.30292 21.7661 8.28373 22.3503 9.35156 22.755V25.5474C9.35156 26.1992 9.87538 26.7276 10.5216 26.7276H14.9951C15.6412 26.7276 16.1651 26.1992 16.1651 25.5474V22.8307C17.3088 22.4261 18.3574 21.8173 19.2678 21.0477L21.4803 22.4284C22.0298 22.7713 22.7508 22.5999 23.0908 22.0456L25.4444 18.2082C25.7843 17.6539 25.6144 16.9265 25.0649 16.5836L22.687 15.0997C22.7881 14.5249 22.8409 13.9332 22.8409 13.3291C22.8409 12.7015 22.784 12.0874 22.675 11.4917L25.1178 10.1187C25.6823 9.8014 25.8849 9.08267 25.5703 8.51329L23.3928 4.57147C23.0783 4.00209 22.3658 3.79772 21.8013 4.115L19.2168 5.56769C18.3183 4.81828 17.2875 4.22456 16.1651 3.82748V1.18018C16.1651 0.528396 15.6412 0 14.9951 0H10.5216ZM16.6468 13.3985C16.6468 15.5073 14.9521 17.2167 12.8615 17.2167C10.771 17.2167 9.07627 15.5073 9.07627 13.3985C9.07627 11.2898 10.771 9.58028 12.8615 9.58028C14.9521 9.58028 16.6468 11.2898 16.6468 13.3985Z" fill="#666666"/>
<path fill-rule="evenodd" clip-rule="evenodd" d="M41.0889 14.413C40.5284 14.0887 39.8134 14.2842 39.4919 14.8496L38.149 17.2117C37.0115 17.0251 35.8608 17.0419 34.7476 17.2481L33.4823 14.89C33.1748 14.3168 32.4648 14.1036 31.8965 14.4139L27.9623 16.5617C27.394 16.872 27.1826 17.5882 27.4902 18.1614L28.8637 20.7213C28.5048 21.1587 28.1778 21.6329 27.8883 22.1422C27.5922 22.6628 27.3475 23.199 27.1523 23.7447L24.3668 23.7101C23.7207 23.7021 23.1905 24.2239 23.1825 24.8756L23.1274 29.3878C23.1195 30.0395 23.6368 30.5744 24.2829 30.5824L27.1766 30.6183C27.5621 31.6795 28.1249 32.6784 28.8516 33.5654L27.4745 35.9877C27.153 36.5531 27.3468 37.2743 27.9074 37.5986L31.788 39.8434C32.3486 40.1676 33.0636 39.9722 33.385 39.4067L34.7248 37.05C35.9166 37.273 37.1264 37.2711 38.2957 37.0602L39.5341 39.3682C39.8417 39.9414 40.5517 40.1546 41.12 39.8444L45.0542 37.6965C45.6225 37.3862 45.8338 36.6701 45.5262 36.0968L44.1953 33.6163C44.5665 33.1684 44.9041 32.6816 45.202 32.1576C45.5115 31.6132 45.765 31.0519 45.9643 30.4804L48.7605 30.5152C49.4066 30.5232 49.9368 30.0014 49.9448 29.3496L49.9999 24.8375C50.0079 24.1858 49.4905 23.6509 48.8444 23.6429L45.8859 23.6061C45.4761 22.5051 44.8748 21.4729 44.0969 20.5652L45.4025 18.2687C45.7239 17.7032 45.5301 16.982 44.9696 16.6578L41.0889 14.413ZM39.7945 29.1096C38.7545 30.9389 36.4413 31.5714 34.6278 30.5223C32.8143 29.4733 32.1873 27.1399 33.2273 25.3106C34.2673 23.4813 36.5805 22.8488 38.394 23.8979C40.2075 24.9469 40.8345 27.2803 39.7945 29.1096Z" fill="#666666"/>
</svg>
