<svg width="86" height="86" viewBox="0 0 86 86" fill="none" xmlns="http://www.w3.org/2000/svg">
<path fill-rule="evenodd" clip-rule="evenodd" d="M49.5619 57.0493C47.6063 57.4933 45.7854 57.7665 43.6365 57.9477C40.7913 58.1876 37.6476 58.3274 32.583 57.4122C31.8202 57.2744 30.9362 57.0318 30.0019 56.772C28.6194 56.3875 27.1022 55.8 25.6067 55.1198C22.3028 53.6174 18.973 51.1919 16.3624 48.6785C12.7076 45.1595 10.131 41.7041 7.38451 36.4362C7.37919 36.4259 7.37388 36.4158 7.36856 36.4056C6.79537 40.6458 6.75788 43.6262 7.03379 46.0498C7.03486 46.0517 7.03593 46.0539 7.03698 46.0558C7.84897 47.5458 8.59139 49.1171 9.3411 50.7041C10.5275 53.215 11.7322 55.7646 13.2596 58.0923C17.163 64.0397 22.545 69.0362 29.2456 71.8716C39.1844 76.0776 52.0095 73.2658 52.0524 73.0989C53.5235 67.3981 52.6174 63.274 49.5619 57.0493Z" fill="url(#paint0_radial_991_30)"/>
<path fill-rule="evenodd" clip-rule="evenodd" d="M42.7346 80.0288C52.7425 80.0288 62.3404 76.0764 69.4171 69.0412C76.4936 62.0058 80.4693 52.4639 80.4693 42.5144C80.4693 35.0947 78.2561 27.8417 74.1099 21.6725C69.9635 15.5033 64.0702 10.695 57.1751 7.85563C50.28 5.01627 42.6928 4.27334 35.373 5.72085C28.0532 7.16835 21.3295 10.7412 16.0522 15.9877C10.775 21.2342 7.18108 27.9186 5.72508 35.1957C4.26907 42.4728 5.01636 50.0157 7.87239 56.8706C10.7284 63.7254 15.565 69.5844 21.7704 73.7064C27.9758 77.8286 35.2714 80.0288 42.7346 80.0288ZM78.6096 42.5144C78.6096 51.9735 74.8299 61.0451 68.1021 67.7338C61.3741 74.4224 52.2493 78.18 42.7346 78.18C35.6393 78.18 28.7032 76.0882 22.8036 72.1692C16.904 68.2502 12.3058 62.68 9.59053 56.1629C8.23881 52.9188 7.38394 49.5123 7.03698 46.0558C7.84897 47.5458 8.5914 49.1171 9.3411 50.7041C10.5275 53.215 11.7322 55.7646 13.2596 58.0923C17.163 64.0397 22.545 69.0362 29.2456 71.8716C39.1844 76.0776 52.0095 73.2658 52.0524 73.0989C53.5235 67.3981 52.6174 63.274 49.5619 57.0493C47.6063 57.4933 45.7854 57.7665 43.6365 57.9477C40.7913 58.1876 37.6476 58.3274 32.5829 57.4122C31.8202 57.2744 30.9362 57.0318 30.0019 56.772C28.6194 56.3875 27.1022 55.8 25.6067 55.1198C22.3028 53.6174 18.973 51.1919 16.3624 48.6784C12.7076 45.1595 10.131 41.7041 7.38451 36.4362C7.4356 36.1424 7.49044 35.8492 7.54903 35.5564C8.93327 28.638 12.35 22.283 17.3672 17.295C22.3845 12.3071 28.7767 8.91031 35.7357 7.53414C42.6948 6.15798 49.9081 6.86427 56.4635 9.56372C58.6798 10.4764 60.8506 11.5567 62.7584 12.9214C61.6306 12.1972 60.3492 11.1858 57.4278 9.97739C46.378 8.59921 33.0459 8.94576 23.4289 16.7836C15.1209 23.5544 11.5897 35.1809 11.7091 35.2817C13.8965 37.1265 15.7549 38.3353 17.7125 39.151C17.1774 38.9456 16.7435 38.7354 15.9009 38.3213C15.4506 40.8801 15.5432 46.0733 15.8791 48.1331C18.1959 50.528 21.7891 53.4017 26.8006 55.5878C29.2376 56.6508 32.1675 57.3791 35.2069 57.7985C39.7582 58.3037 44.1089 58.125 49.5893 57.0082C51.1368 60.1536 52.4728 63.1395 52.8246 67.5862C52.9709 67.4831 53.2731 67.3505 53.7035 67.1619C55.0749 66.5606 57.7482 65.3888 60.83 62.7764C59.9719 65.7222 58.8131 68.5954 57.4661 70.9967C57.4017 71.1115 57.3378 71.2257 57.2742 71.3387C56.2071 73.2428 55.2615 75.0005 54.3389 76.2627C55.3407 75.9056 55.925 75.6817 56.5929 75.4114C58.5965 74.5045 59.9322 73.9701 63.188 71.8156C70.3822 63.1155 76.6584 52.8562 75.6417 41.2495C74.7218 30.7453 66.1002 20.6225 65.7245 20.6672C64.5109 20.8123 62.7783 21.4274 60.8812 22.5118C60.8421 22.4792 60.802 22.446 60.7611 22.412C59.112 21.0436 55.9862 18.4498 50.5165 16.7444C49.299 17.1493 48.2889 17.4922 47.4728 17.7854C48.5386 17.3652 49.6892 16.9585 50.9312 16.5619C55.1741 15.3963 61.3193 14.5714 65.3126 14.798C68.1003 17.0425 70.5488 19.7021 72.5635 22.6997C76.5055 28.5649 78.6096 35.4605 78.6096 42.5144Z" fill="url(#paint1_radial_991_30)"/>
<path d="M27.4323 40.9181C23.2693 40.65 20.3975 40.2701 17.7125 39.151M17.7125 39.151C18.2543 39.3593 18.9001 39.5626 20.1789 39.968M17.7125 39.151C17.1774 38.9456 16.7435 38.7354 15.9009 38.3213C15.4506 40.8801 15.5432 46.0733 15.8791 48.1331C18.1959 50.528 21.7891 53.4017 26.8006 55.5878C29.2376 56.6508 32.1675 57.3791 35.2069 57.7985C39.7582 58.3037 44.1089 58.125 49.5893 57.0082C51.1368 60.1536 52.4728 63.1395 52.8246 67.5862C52.9709 67.4831 53.2731 67.3505 53.7035 67.1619C55.0749 66.5606 57.7482 65.3888 60.83 62.7764M17.7125 39.151C15.7549 38.3353 13.8965 37.1265 11.7091 35.2817C11.5897 35.1809 15.1209 23.5544 23.4289 16.7836C33.0459 8.94576 46.378 8.59921 57.4278 9.97739C60.3492 11.1858 61.6306 12.1972 62.7584 12.9214M41.6136 20.7858C43.2044 19.6952 45.1343 18.7076 47.4728 17.7854M47.4728 17.7854C46.8764 17.9998 46.3835 18.1876 45.9891 18.3537M47.4728 17.7854C48.2889 17.4922 49.299 17.1493 50.5165 16.7444C55.9862 18.4498 59.112 21.0436 60.7611 22.412C60.802 22.446 60.8421 22.4792 60.8812 22.5118M47.4728 17.7854C48.5386 17.3652 49.6892 16.9585 50.9312 16.5619C55.1741 15.3963 61.3193 14.5714 65.3126 14.798M52.4586 30.5103C54.8451 26.7992 58.0469 24.1318 60.8812 22.5118M60.8812 22.5118C62.7783 21.4274 64.5109 20.8123 65.7245 20.6672C66.1002 20.6225 74.7218 30.7453 75.6417 41.2495C76.6584 52.8562 70.3822 63.1155 63.188 71.8156C59.9322 73.9701 58.5965 74.5045 56.5929 75.4114C55.925 75.6817 55.3407 75.9056 54.3389 76.2627C55.2615 75.0005 56.2071 73.2428 57.2742 71.3387C57.3378 71.2257 57.4017 71.1115 57.4661 70.9967C58.8131 68.5954 59.9719 65.7222 60.83 62.7764M60.83 62.7764C60.7801 62.6149 63.2535 57.4777 62.2951 50.0686C61.9551 47.4399 60.8432 44.0449 59.5671 40.8381C57.7576 36.4146 55.2666 33.1399 52.5305 30.3958C54.445 27.8387 55.9455 25.9702 58.0844 24.3312M60.83 62.7764C60.6931 62.8968 60.9654 62.6616 60.83 62.7764ZM19.9755 39.8364C22.2228 40.4989 25.1816 40.8487 27.4574 40.8461C28.0482 35.1313 30.7129 30.5103 34.6587 26.4333C37.4028 23.9818 40.1119 21.5757 42.8427 19.9725C43.969 19.3112 45.0469 18.6951 46.1388 18.2769M7.03698 46.0558C7.38394 49.5123 8.23881 52.9188 9.59053 56.1629C12.3058 62.68 16.904 68.2502 22.8036 72.1692C28.7032 76.0882 35.6393 78.18 42.7346 78.18C52.2493 78.18 61.3741 74.4224 68.1021 67.7338C74.8299 61.0451 78.6096 51.9735 78.6096 42.5144C78.6096 35.4605 76.5055 28.5649 72.5635 22.6997C70.5488 19.7021 68.1003 17.0425 65.3126 14.798M7.03698 46.0558C7.84897 47.5458 8.5914 49.1171 9.3411 50.7041C10.5275 53.215 11.7322 55.7646 13.2596 58.0923C17.163 64.0397 22.545 69.0362 29.2456 71.8716C39.1844 76.0776 52.0095 73.2658 52.0524 73.0989C53.5235 67.3981 52.6174 63.274 49.5619 57.0493C47.6063 57.4933 45.7854 57.7665 43.6365 57.9477C40.7913 58.1876 37.6476 58.3274 32.5829 57.4122C31.8202 57.2744 30.9362 57.0318 30.0019 56.772C28.6194 56.3875 27.1022 55.8 25.6067 55.1198C22.3028 53.6174 18.973 51.1919 16.3624 48.6784C12.7076 45.1595 10.131 41.7041 7.38451 36.4362M7.03698 46.0558C6.7165 42.8627 6.82942 39.6269 7.38451 36.4362M7.03698 46.0558C7.03593 46.0539 7.03486 46.0517 7.03379 46.0498C6.75789 43.6262 6.79537 40.6458 7.36856 36.4056C7.37388 36.4158 7.37919 36.4259 7.38451 36.4362M65.3126 14.798C64.4899 14.1356 63.6377 13.5094 62.7584 12.9214M7.38451 36.4362C7.4356 36.1424 7.49044 35.8492 7.54903 35.5564C8.93327 28.638 12.35 22.283 17.3672 17.295C22.3845 12.3071 28.7767 8.91031 35.7357 7.53414C42.6948 6.15798 49.9081 6.86427 56.4635 9.56372C58.6798 10.4764 60.8506 11.5567 62.7584 12.9214M80.4693 42.5144C80.4693 52.4639 76.4936 62.0058 69.4171 69.0412C62.3404 76.0764 52.7425 80.0288 42.7346 80.0288C35.2714 80.0288 27.9758 77.8286 21.7704 73.7064C15.565 69.5844 10.7284 63.7254 7.87239 56.8706C5.01636 50.0157 4.26907 42.4728 5.72508 35.1957C7.18108 27.9186 10.775 21.2342 16.0522 15.9877C21.3295 10.7412 28.0532 7.16835 35.373 5.72085C42.6928 4.27334 50.28 5.01627 57.1751 7.85563C64.0702 10.695 69.9635 15.5033 74.1099 21.6725C78.2561 27.8417 80.4693 35.0947 80.4693 42.5144Z" stroke="#3A3838" stroke-width="0.666667"/>
<defs>
<radialGradient id="paint0_radial_991_30" cx="0" cy="0" r="1" gradientUnits="userSpaceOnUse" gradientTransform="translate(39.3207 37.5453) rotate(58.1251) scale(27.3514 27.0971)">
<stop stop-color="#BBBFC2"/>
<stop offset="1" stop-color="#666666"/>
</radialGradient>
<radialGradient id="paint1_radial_991_30" cx="0" cy="0" r="1" gradientUnits="userSpaceOnUse" gradientTransform="translate(39.3207 37.5453) rotate(58.1251) scale(27.3514 27.0971)">
<stop stop-color="#BBBFC2"/>
<stop offset="1" stop-color="#666666"/>
</radialGradient>
</defs>
</svg>
